<svg xmlns="http://www.w3.org/2000/svg" viewBox="0 0 180 180" fill="none" shape-rendering="auto" aria-hidden="true" width="200" height="200"><!-- Generated by DiceBear (https://www.dicebear.com) --><metadata xmlns:rdf="http://www.w3.org/1999/02/22-rdf-syntax-ns#" xmlns:xsi="http://www.w3.org/2001/XMLSchema-instance" xmlns:dc="http://purl.org/dc/elements/1.1/" xmlns:dcterms="http://purl.org/dc/terms/"><rdf:RDF><rdf:Description><dc:title>Bottts</dc:title><dc:creator>Pablo Stanley</dc:creator><dc:source xsi:type="dcterms:URI">https://bottts.com/</dc:source><dcterms:license xsi:type="dcterms:URI">https://bottts.com/</dcterms:license><dc:rights>Remix of “Bottts” (https://bottts.com/) by “Pablo Stanley”, licensed under “Free for personal and commercial use” (https://bottts.com/)</dc:rights></rdf:Description></rdf:RDF></metadata><defs><g id="sides-round-e4a405c1"><mask id="sidesRound-a" style="mask-type:luminance"><ellipse cx="144" cy="38.5" rx="18" ry="22.5" fill="white"/><ellipse cx="18" cy="22.5" rx="18" ry="22.5" transform="matrix(-1 0 0 1 42 16)" fill="white"/></mask><g mask="url(#sidesRound-a)"><path d="M-6 0h180v76H-6z" fill="#7681f5"/><path d="M-6 0h180v76H-6z" fill="white" fill-opacity=".3"/><path fill="black" fill-opacity=".2" d="M14 0h140v76H14z"/></g></g><g id="top-radar-e4a405c1"><mask id="topRadar-a" style="mask-type:luminance"><path fill-rule="evenodd" clip-rule="evenodd" d="M35.8.7A20 20 0 1 0 64.08 29" fill="white"/><circle cx="59.13" cy="5.66" r="4" transform="rotate(45 59.13 5.66)" fill="white"/><path fill="white" d="m56.307 7.077 1.414 1.414-18.384 18.385-1.415-1.414zM39.94 28.71h4v24h-4z"/></mask><g mask="url(#topRadar-a)"><path d="M-8 .6H92v52H-8z" fill="#7681f5"/><path d="M-8 .6H92v52H-8z" fill="white" fill-opacity=".3"/><path fill-rule="evenodd" clip-rule="evenodd" d="M35.8.7A20 20 0 1 0 64.08 29" fill="white" fill-opacity=".2"/><circle cx="59.13" cy="8" r="5.66" transform="rotate(45 59.13 8)" fill="white" fill-opacity=".8"/></g></g><g id="head-square02-e4a405c1"><mask id="headSquare02-a" style="mask-type:luminance"><path d="M0 12A12 12 0 0 1 12 0h106a12 12 0 0 1 12 12v70a38 38 0 0 1-38 38H38A38 38 0 0 1 0 82z" fill="white"/></mask><g mask="url(#headSquare02-a)"><path d="M-2-2h134v124H-2z" fill="#7681f5"/></g></g><g id="mouth-grill02-e4a405c1"><rect x="24" y="6" width="6" height="14" rx="2" fill="black" fill-opacity=".6"/><rect x="10" y="6" width="6" height="14" rx="2" fill="black" fill-opacity=".6"/><rect x="38" y="6" width="6" height="14" rx="2" fill="black" fill-opacity=".6"/><rect x="52" y="6" width="6" height="14" rx="2" fill="black" fill-opacity=".6"/></g><g id="eyes-frame1-e4a405c1"><rect y="4" width="104" height="42" rx="4" fill="black" fill-opacity=".8"/><rect x="28" y="25" width="10" height="11" rx="2" fill="#8BDDFF"/><rect x="66" y="25" width="10" height="11" rx="2" fill="#8BDDFF"/><path fill-rule="evenodd" clip-rule="evenodd" d="M21 4h8L12 46H4z" fill="white" fill-opacity=".4"/></g><clipPath id="clip-e4a405c1"><rect width="180" height="180" rx="0" ry="0"/></clipPath></defs><g clip-path="url(#clip-e4a405c1)"><use transform="translate(6 66)" href="#sides-round-e4a405c1"/><use transform="translate(49 -.6)" href="#top-radar-e4a405c1"/><use transform="translate(25 44)" href="#head-square02-e4a405c1"/><use transform="translate(56 128)" href="#mouth-grill02-e4a405c1"/><use transform="translate(38 76)" href="#eyes-frame1-e4a405c1"/></g></svg>